<?xml version="1.0" standalone="no"?>
<!DOCTYPE svg PUBLIC "-//W3C//DTD SVG 20010904//EN"
 "http://www.w3.org/TR/2001/REC-SVG-20010904/DTD/svg10.dtd">
<svg version="1.0" xmlns="http://www.w3.org/2000/svg"
 width="300.000000pt" height="300.000000pt" viewBox="0 0 300.000000 300.000000"
 preserveAspectRatio="xMidYMid meet">
<metadata>
Created by potrace 1.10, written by Peter Selinger 2001-2011
</metadata>
<g transform="translate(0.000000,300.000000) scale(0.100000,-0.100000)"
fill="#000000" stroke="none">
<path d="M1450 2478 c-41 -4 -104 -14 -140 -23 -36 -9 -73 -18 -82 -20 -42 -9
-196 -89 -255 -131 -293 -209 -451 -574 -403 -929 18 -128 26 -159 74 -272 14
-34 26 -65 26 -67 0 -6 -60 -23 -115 -32 -22 -4 -135 -7 -252 -8 -116 -1 -214
-4 -218 -7 -15 -16 175 -31 328 -26 131 3 181 9 260 30 207 55 370 154 664
402 l58 49 -91 91 c-105 104 -149 182 -166 291 -13 87 1 161 45 235 96 160
326 223 600 162 l67 -15 0 -137 c0 -106 -3 -142 -15 -157 -13 -16 -16 -17 -25
-4 -5 8 -10 29 -10 45 0 43 -54 131 -99 160 -21 14 -65 31 -97 37 -222 41
-360 -154 -231 -324 18 -24 79 -80 135 -125 l102 -82 83 55 c161 109 337 178
517 205 141 20 379 0 542 -46 18 -5 20 -4 8 4 -30 22 -175 62 -244 68 -82 6
-93 13 -121 68 -97 195 -299 368 -532 454 -136 50 -257 65 -413 49z m335 -58
c249 -67 452 -225 594 -462 l23 -38 -29 0 c-24 0 -34 9 -60 53 -85 142 -215
259 -376 337 -153 74 -203 85 -392 85 -138 0 -171 -3 -240 -23 -268 -78 -489
-273 -594 -527 -52 -124 -65 -194 -64 -350 0 -159 17 -241 76 -369 35 -75 35
-86 -4 -86 -16 0 -69 128 -96 230 -20 77 -25 119 -26 225 0 205 46 362 156
527 146 220 362 364 622 414 101 20 307 12 410 -16z m-122 -61 c167 -22 339
-95 440 -188 122 -110 203 -210 193 -236 -6 -16 -5 -16 -157 -39 -99 -16 -188
-42 -276 -82 -55 -25 -213 -115 -219 -125 -13 -21 -55 -5 -119 46 -122 97
-165 157 -165 232 0 79 62 137 158 149 118 15 213 -47 246 -159 9 -30 23 -60
31 -67 19 -16 61 -5 73 18 14 25 21 273 9 298 -5 12 -19 27 -31 33 -73 39
-313 54 -419 26 -241 -63 -369 -258 -316 -483 22 -94 85 -196 173 -282 25 -24
46 -49 46 -55 0 -14 -185 -167 -285 -236 -95 -65 -215 -129 -243 -129 -24 0
-64 79 -92 183 -18 67 -23 96 -35 202 -10 87 32 297 78 392 95 195 227 328
426 427 151 76 299 99 484 75z"/>
<path d="M2342 1829 c-194 -26 -389 -102 -559 -216 -46 -30 -185 -140 -309
-244 -124 -103 -266 -215 -315 -249 -118 -81 -274 -155 -396 -187 -86 -23
-118 -26 -258 -26 -140 0 -175 3 -279 27 -65 15 -125 30 -134 33 -10 5 -13 2
-8 -6 13 -21 89 -48 194 -71 110 -23 348 -29 412 -10 65 19 84 14 120 -35 19
-25 38 -45 43 -45 5 0 37 -26 71 -57 104 -96 234 -162 411 -208 62 -17 340
-20 397 -5 230 60 360 132 506 280 223 226 323 552 266 866 -9 49 -17 98 -18
109 -1 22 -2 22 189 25 71 1 84 4 60 11 -46 13 -311 19 -393 8z m121 -81 c53
-213 39 -418 -42 -616 -87 -210 -270 -398 -484 -497 -133 -61 -222 -80 -392
-80 -177 0 -265 20 -410 90 -95 46 -230 137 -218 148 16 16 59 4 103 -28 69
-51 193 -110 285 -137 69 -20 102 -23 240 -23 189 0 239 11 392 85 253 123
421 334 489 615 26 104 23 305 -5 409 -26 98 -26 96 3 96 21 0 26 -8 39 -62z
m-70 -23 c12 -44 21 -118 24 -198 5 -117 3 -138 -23 -238 -15 -60 -31 -109
-36 -109 -4 0 -8 -6 -8 -14 0 -18 -59 -132 -85 -166 -48 -61 -185 -190 -239
-224 -285 -181 -638 -189 -928 -19 -31 18 -59 37 -62 42 -6 9 130 61 138 54 3
-3 -7 -15 -21 -27 -22 -19 -24 -26 -15 -43 21 -39 86 -55 237 -59 155 -4 200
3 291 47 87 41 154 105 196 186 42 81 51 122 50 228 0 60 -7 97 -26 149 -14
37 -26 72 -26 77 0 10 83 63 153 98 63 32 60 46 -5 20 -51 -19 -175 -84 -190
-97 -4 -4 10 -40 30 -81 36 -72 37 -79 37 -180 0 -98 -2 -111 -32 -173 -76
-161 -226 -242 -448 -242 -100 0 -210 15 -243 33 -8 5 15 21 62 45 67 34 78
37 107 27 42 -15 152 -14 203 1 24 7 61 32 87 58 54 52 75 109 65 180 -6 47
-53 151 -71 157 -5 1 -71 -54 -145 -123 -189 -176 -293 -242 -452 -288 -85
-24 -178 -41 -178 -32 0 2 30 14 68 27 175 58 291 135 512 341 78 73 172 157
209 186 81 65 232 142 326 167 91 24 108 39 33 30 -63 -7 -176 -48 -253 -90
-108 -60 -90 -49 -175 -116 -36 -29 -121 -107 -190 -173 -168 -163 -349 -285
-430 -289 -29 -2 -36 2 -38 20 -3 17 4 26 25 34 136 51 344 195 593 409 36 30
88 73 115 95 28 22 59 48 70 58 33 30 176 122 257 164 133 71 299 124 373 120
l39 -2 19 -70z m-758 -570 c25 -63 17 -143 -18 -188 -55 -72 -159 -97 -292
-71 -39 8 -55 7 -73 -4 -12 -8 -25 -12 -28 -9 -3 3 7 13 23 23 59 38 142 105
243 198 58 52 110 96 117 96 6 0 19 -20 28 -45z m-745 -287 c0 -7 -40 -22 -43
-16 -1 1 -13 15 -26 30 l-24 28 24 9 c20 8 28 5 46 -17 13 -15 23 -30 23 -34z"/>
</g>
</svg>
